<svg width="180" height="180" viewBox="0 0 180 180" xmlns="http://www.w3.org/2000/svg" style="fill-rule:evenodd;clip-rule:evenodd;stroke-linecap:round;stroke-linejoin:round;stroke-miterlimit:1.5;">
  <rect width="180" height="180" fill="#0a0a0a" rx="36" ry="36"/>
  <svg x="28" y="28" width="124" height="124" viewBox="0 0 482 581" preserveAspectRatio="xMidYMid meet">
    <g transform="matrix(1,0,0,1,146.167598,-30.58389)">
      <g transform="matrix(1,0,0,1,-224,-49)">
        <path d="M77.997,435.498C78.01,420.538 77.832,82.527 77.832,82.527L557.495,79.584C557.495,79.584 559.969,460.224 558.907,470.565C557.062,488.52 544.648,600.576 414.577,660.685C277.086,724.222 83.371,634.049 77.997,435.498ZM133.609,538.348C134.734,539.585 294.643,437.536 294.643,437.536L294.636,284.452L209.576,282.35L210.41,236.094C210.41,236.094 292.193,236.368 292.483,236.393C291.956,235.943 294.835,154.852 294.835,154.852L342.51,155.404L343.277,236.506L431.131,236.55L431.158,281.384L343.325,284.44L343.364,437.539L506.254,535.368C506.254,535.368 531.51,517.835 531.024,436.037L531.494,435.832L530.787,111.437L107.679,110.561L107.506,433.832C107.506,433.832 108.812,464.096 109.878,467.443C110.993,470.938 122.259,525.882 133.609,538.348ZM319.5,651.492C324.675,651.356 357.755,650.484 383.397,641.228C462.768,612.58 488.792,563.259 488.216,562.746C485.472,560.303 317.671,458.842 317.671,458.842L151.68,566.377C151.68,566.377 166.231,588.247 191.8,607.107C244.89,646.266 308.694,651.048 319.5,651.492Z" style="fill:#ffffff;"/>
      </g>
      <g transform="matrix(1.119403,0,0,1.119403,-1056.80597,-1200.462687)">
        <circle cx="1028.5" cy="1536.5" r="33.5" style="fill:#00a7ff;"/>
      </g>
    </g>
  </svg>
</svg>
